<svg width="29" height="30" viewBox="0 0 29 30" fill="none" xmlns="http://www.w3.org/2000/svg">
<path d="M7.29845 9.89119C4.32595 10.5642 2.8397 10.9001 2.48566 12.0372C2.13283 13.173 3.14541 14.3584 5.17179 16.7279L5.69621 17.3406C6.27137 18.0136 6.56016 18.3507 6.68945 18.7664C6.81875 19.1833 6.77525 19.6328 6.68825 20.5306L6.6085 21.3486C6.30279 24.5108 6.14933 26.0913 7.07491 26.7934C8.0005 27.4966 9.3925 26.855 12.1741 25.5741L12.8955 25.2431C13.6857 24.8781 14.0808 24.6969 14.5001 24.6969C14.9194 24.6969 15.3145 24.8781 16.106 25.2431L16.825 25.5741C19.6077 26.855 20.9997 27.4954 21.9241 26.7946C22.8509 26.0913 22.6975 24.5108 22.3917 21.3486M23.8285 16.7279C25.8548 14.3596 26.8674 13.1742 26.5146 12.0372C26.1605 10.9001 24.6743 10.563 21.7018 9.89119L20.9333 9.71719C20.0887 9.52627 19.667 9.43081 19.3274 9.17344C18.9891 8.91606 18.7716 8.52577 18.3366 7.74519L17.9402 7.03469C16.4093 4.28935 15.6444 2.91669 14.5001 2.91669C13.3558 2.91669 12.591 4.28935 11.06 7.03469" stroke="#FFB800" stroke-width="3" stroke-linecap="round"/>
</svg>
